<svg width="20" height="20" viewBox="0 0 20 20" fill="none" xmlns="http://www.w3.org/2000/svg">
<path d="M10 0C10.1894 0 10.3711 0.0752549 10.5051 0.209209C10.639 0.343164 10.7143 0.524845 10.7143 0.714286V2.14286C10.7143 2.3323 10.639 2.51398 10.5051 2.64793C10.3711 2.78189 10.1894 2.85714 10 2.85714C9.81056 2.85714 9.62888 2.78189 9.49492 2.64793C9.36097 2.51398 9.28571 2.3323 9.28571 2.14286V0.714286C9.28571 0.524845 9.36097 0.343164 9.49492 0.209209C9.62888 0.0752549 9.81056 0 10 0ZM10 15C11.3261 15 12.5979 14.4732 13.5355 13.5355C14.4732 12.5979 15 11.3261 15 10C15 8.67392 14.4732 7.40215 13.5355 6.46447C12.5979 5.52678 11.3261 5 10 5C8.67392 5 7.40215 5.52678 6.46447 6.46447C5.52678 7.40215 5 8.67392 5 10C5 11.3261 5.52678 12.5979 6.46447 13.5355C7.40215 14.4732 8.67392 15 10 15ZM10 13.5714C9.0528 13.5714 8.14439 13.1952 7.47462 12.5254C6.80485 11.8556 6.42857 10.9472 6.42857 10C6.42857 9.0528 6.80485 8.14439 7.47462 7.47462C8.14439 6.80485 9.0528 6.42857 10 6.42857C10.9472 6.42857 11.8556 6.80485 12.5254 7.47462C13.1952 8.14439 13.5714 9.0528 13.5714 10C13.5714 10.9472 13.1952 11.8556 12.5254 12.5254C11.8556 13.1952 10.9472 13.5714 10 13.5714ZM19.2857 10.7143C19.4752 10.7143 19.6568 10.639 19.7908 10.5051C19.9247 10.3711 20 10.1894 20 10C20 9.81056 19.9247 9.62888 19.7908 9.49492C19.6568 9.36097 19.4752 9.28571 19.2857 9.28571H17.8571C17.6677 9.28571 17.486 9.36097 17.3521 9.49492C17.2181 9.62888 17.1429 9.81056 17.1429 10C17.1429 10.1894 17.2181 10.3711 17.3521 10.5051C17.486 10.639 17.6677 10.7143 17.8571 10.7143H19.2857ZM10 17.1429C10.1894 17.1429 10.3711 17.2181 10.5051 17.3521C10.639 17.486 10.7143 17.6677 10.7143 17.8571V19.2857C10.7143 19.4752 10.639 19.6568 10.5051 19.7908C10.3711 19.9247 10.1894 20 10 20C9.81056 20 9.62888 19.9247 9.49492 19.7908C9.36097 19.6568 9.28571 19.4752 9.28571 19.2857V17.8571C9.28571 17.6677 9.36097 17.486 9.49492 17.3521C9.62888 17.2181 9.81056 17.1429 10 17.1429ZM2.14286 10.7143C2.3323 10.7143 2.51398 10.639 2.64793 10.5051C2.78189 10.3711 2.85714 10.1894 2.85714 10C2.85714 9.81056 2.78189 9.62888 2.64793 9.49492C2.51398 9.36097 2.3323 9.28571 2.14286 9.28571H0.714286C0.524845 9.28571 0.343164 9.36097 0.209209 9.49492C0.0752549 9.62888 0 9.81056 0 10C0 10.1894 0.0752549 10.3711 0.209209 10.5051C0.343164 10.639 0.524845 10.7143 0.714286 10.7143H2.14286ZM2.35286 2.35286C2.48681 2.21895 2.66845 2.14372 2.85786 2.14372C3.04726 2.14372 3.22891 2.21895 3.36286 2.35286L4.79143 3.78143C4.85965 3.84732 4.91407 3.92614 4.9515 4.01328C4.98894 4.10043 5.00864 4.19416 5.00946 4.289C5.01029 4.38384 4.99222 4.4779 4.9563 4.56568C4.92039 4.65346 4.86735 4.73322 4.80028 4.80028C4.73322 4.86735 4.65346 4.92039 4.56568 4.9563C4.4779 4.99222 4.38384 5.01029 4.289 5.00946C4.19416 5.00864 4.10043 4.98894 4.01328 4.9515C3.92614 4.91407 3.84732 4.85965 3.78143 4.79143L2.35286 3.36286C2.21895 3.22891 2.14372 3.04726 2.14372 2.85786C2.14372 2.66845 2.21895 2.48681 2.35286 2.35286ZM3.36286 17.6486C3.22814 17.7787 3.04771 17.8507 2.86043 17.8491C2.67314 17.8474 2.49399 17.7723 2.36156 17.6399C2.22912 17.5074 2.154 17.3283 2.15238 17.141C2.15075 16.9537 2.22274 16.7733 2.35286 16.6386L3.78143 15.21C3.84732 15.1418 3.92614 15.0874 4.01328 15.0499C4.10043 15.0125 4.19416 14.9928 4.289 14.992C4.38384 14.9911 4.4779 15.0092 4.56568 15.0451C4.65346 15.081 4.73322 15.1341 4.80028 15.2011C4.86735 15.2682 4.92039 15.348 4.9563 15.4357C4.99222 15.5235 5.01029 15.6176 5.00946 15.7124C5.00864 15.8073 4.98894 15.901 4.9515 15.9881C4.91407 16.0753 4.85965 16.1541 4.79143 16.22L3.36286 17.6486ZM17.6486 2.35286C17.5146 2.21895 17.333 2.14372 17.1436 2.14372C16.9542 2.14372 16.7725 2.21895 16.6386 2.35286L15.21 3.78143C15.0799 3.91614 15.0079 4.09657 15.0095 4.28386C15.0111 4.47114 15.0863 4.65029 15.2187 4.78273C15.3511 4.91516 15.5303 4.99028 15.7176 4.99191C15.9049 4.99354 16.0853 4.92154 16.22 4.79143L17.6486 3.36286C17.7825 3.22891 17.8577 3.04726 17.8577 2.85786C17.8577 2.66845 17.7825 2.48681 17.6486 2.35286ZM16.6386 17.6486C16.7733 17.7787 16.9537 17.8507 17.141 17.8491C17.3283 17.8474 17.5074 17.7723 17.6399 17.6399C17.7723 17.5074 17.8474 17.3283 17.8491 17.141C17.8507 16.9537 17.7787 16.7733 17.6486 16.6386L16.22 15.21C16.1541 15.1418 16.0753 15.0874 15.9881 15.0499C15.901 15.0125 15.8073 14.9928 15.7124 14.992C15.6176 14.9911 15.5235 15.0092 15.4357 15.0451C15.348 15.081 15.2682 15.1341 15.2011 15.2011C15.1341 15.2682 15.081 15.348 15.0451 15.4357C15.0092 15.5235 14.9911 15.6176 14.992 15.7124C14.9928 15.8073 15.0125 15.901 15.0499 15.9881C15.0874 16.0753 15.1418 16.1541 15.21 16.22L16.6386 17.6486Z" fill="black"/>
</svg>
