<svg width="20" height="19" viewBox="0 0 20 19" fill="none" xmlns="http://www.w3.org/2000/svg">
<path d="M15 14C14.7348 14 14.4804 13.8947 14.2929 13.7071C14.1054 13.5196 14 13.2652 14 13C14 12.7348 14.1054 12.4804 14.2929 12.2929C14.4804 12.1054 14.7348 12 15 12C16.654 12 18 10.654 18 9.00001C18 7.34601 16.654 6.00001 15 6.00001C14.762 6.00001 14.504 6.04201 14.187 6.13101L13.116 6.43201L12.93 5.33401C12.7768 4.40247 12.2974 3.55574 11.5775 2.94501C10.8576 2.33429 9.94405 1.99935 9 2.00001C8.40663 2.00091 7.82087 2.13365 7.28507 2.38863C6.74927 2.64361 6.27683 3.01447 5.9019 3.47438C5.52696 3.93429 5.25891 4.47177 5.11711 5.04795C4.97532 5.62413 4.96332 6.22462 5.082 6.80601L5.342 8.04601L3.906 7.99401C2.896 8.00001 2 8.89701 2 10C2 11.103 2.896 12 4 12C4.26522 12 4.51957 12.1054 4.70711 12.2929C4.89464 12.4804 5 12.7348 5 13C5 13.2652 4.89464 13.5196 4.70711 13.7071C4.51957 13.8947 4.26522 14 4 14C1.795 14 0 12.206 0 10C0.00108928 9.11309 0.296404 8.2516 0.839665 7.55053C1.38293 6.84947 2.14343 6.34846 3.002 6.12601L3 6.00001C3 2.69101 5.691 8.91276e-06 9 8.91276e-06C10.2424 -0.00213784 11.4545 0.38357 12.4671 1.10332C13.4798 1.82307 14.2426 2.84097 14.649 4.01501C17.574 3.77401 20 6.12701 20 9.00001C20 11.757 17.757 14 15 14ZM10.639 10L6.139 14.051L9.139 15.5L7.639 19L12.139 14.95L9.139 13.5L10.639 10Z" fill="black"/>
</svg>
