<svg width="18" height="14" viewBox="0 0 18 14" fill="none" xmlns="http://www.w3.org/2000/svg">
<path d="M9 13.9938C8.4195 13.5491 7.7634 13.0866 7.0695 12.5945H7.0605C4.61701 10.8687 1.84772 8.91591 0.624619 6.57599C0.222786 5.83104 0.0098341 5.02054 1.02654e-05 4.19875C-0.00267334 3.07114 0.520913 1.99019 1.45244 1.2002C2.38398 0.410205 3.64482 -0.0221408 4.95001 0.000873995C6.01257 0.00232366 7.05226 0.26758 7.9452 0.765042C8.33757 0.985018 8.69258 1.25111 9 1.55564C9.30914 1.2523 9.66424 0.98637 10.0557 0.765042C10.9483 0.267481 11.9877 0.00220997 13.05 0.000873995C14.3552 -0.0221408 15.616 0.410205 16.5476 1.2002C17.4791 1.99019 18.0027 3.07114 18 4.19875C17.9908 5.02185 17.7778 5.83374 17.3754 6.57987C16.1523 8.9198 13.3839 10.8718 10.9404 12.5945L10.9314 12.6007C10.2366 13.0897 9.5814 13.5522 9.0009 14L9 13.9938ZM4.95001 1.55564C4.11167 1.54658 3.30308 1.82372 2.70001 2.32681C2.11896 2.8198 1.79422 3.49525 1.79994 4.19875C1.81021 4.79772 1.96726 5.38803 2.26082 5.93076C2.83817 6.94035 3.61721 7.85405 4.56211 8.62983C5.45401 9.40722 6.48001 10.1597 7.3674 10.7925C7.6131 10.9674 7.8633 11.1439 8.1135 11.3204L8.271 11.4315C8.5113 11.601 8.7597 11.7767 9 11.9493L9.0117 11.9399L9.0171 11.936H9.0225L9.0306 11.9306H9.0351H9.0396L9.0558 11.9189L9.0927 11.8933L9.099 11.8886L9.1089 11.8824H9.1143L9.1224 11.8762L9.72 11.4525L9.8766 11.3413C10.1295 11.1633 10.3797 10.9869 10.6254 10.812C11.5128 10.1792 12.5397 9.42743 13.4316 8.64616C14.3766 7.87077 15.1557 6.9573 15.7329 5.94786C16.0318 5.40043 16.191 4.80394 16.2 4.19875C16.2037 3.49742 15.8792 2.82456 15.3 2.33303C14.6981 1.82766 13.8893 1.54824 13.05 1.55564C12.0257 1.54812 11.0465 1.91897 10.359 2.57479L9 3.92744L7.641 2.57479C6.95346 1.91897 5.97428 1.54812 4.95001 1.55564Z" fill="#EA3B65"/>
</svg>
