<svg width="20" height="20" viewBox="0 0 20 20" fill="none" xmlns="http://www.w3.org/2000/svg">
<path d="M3.33329 15.834H1.66663C1.66663 13.0726 3.9052 10.834 6.66663 10.834C9.42805 10.834 11.6666 13.0726 11.6666 15.834H9.99996C9.99996 13.993 8.50758 12.5007 6.66663 12.5007C4.82568 12.5007 3.33329 13.993 3.33329 15.834ZM15.8333 13.334H14.1666V10.834H11.6666V9.16732H14.1666V6.66732H15.8333V9.16732H18.3333V10.834H15.8333V13.334ZM6.66663 10.0007C4.82568 10.0007 3.33329 8.50827 3.33329 6.66732C3.33329 4.82637 4.82568 3.33398 6.66663 3.33398C8.50758 3.33398 9.99996 4.82637 9.99996 6.66732C9.99766 8.50731 8.50662 9.99836 6.66663 10.0007ZM6.66663 5.00065C5.75612 5.00157 5.01487 5.73302 5.00182 6.64343C4.98877 7.55385 5.70876 8.30624 6.61887 8.33325C7.52897 8.36026 8.29232 7.6519 8.33329 6.74232V7.07565V6.66732C8.33329 5.74684 7.5871 5.00065 6.66663 5.00065Z" fill="#2D2422"/>
</svg>
