<svg width="308" height="99" viewBox="0 0 308 99" fill="none" xmlns="http://www.w3.org/2000/svg">
<path d="M176 14H308V79H176V14Z" fill="#143422"/>
<path d="M50.0781 50.9922C50.0781 53.5703 49.7396 56.0573 49.0625 58.4531C48.4115 60.8229 47.474 63.0495 46.25 65.1328C45.026 67.1901 43.5677 69.0781 41.875 70.7969C40.1823 72.4896 38.2943 73.9479 36.2109 75.1719C34.1276 76.3958 31.888 77.3464 29.4922 78.0234C27.1224 78.6745 24.6484 79 22.0703 79H5.19531V22.9844H22.0703C24.6484 22.9844 27.1224 23.3229 29.4922 24C31.888 24.651 34.1276 25.5885 36.2109 26.8125C38.2943 28.0365 40.1823 29.5078 41.875 31.2266C43.5677 32.9193 45.026 34.8073 46.25 36.8906C47.474 38.9479 48.4115 41.1745 49.0625 43.5703C49.7396 45.9401 50.0781 48.4141 50.0781 50.9922ZM38.8672 50.9922C38.8672 48.6745 38.4245 46.5 37.5391 44.4688C36.6797 42.4375 35.4818 40.6667 33.9453 39.1562C32.4349 37.6198 30.651 36.4089 28.5938 35.5234C26.5625 34.638 24.388 34.1953 22.0703 34.1953H16.4844V67.7891H22.0703C24.388 67.7891 26.5625 67.3594 28.5938 66.5C30.651 65.6146 32.4349 64.4167 33.9453 62.9062C35.4818 61.3698 36.6797 59.5859 37.5391 57.5547C38.4245 55.4974 38.8672 53.3099 38.8672 50.9922ZM73.0469 68.7656C73.4635 68.8958 73.8802 68.987 74.2969 69.0391C74.7135 69.0651 75.1302 69.0781 75.5469 69.0781C76.5885 69.0781 77.5911 68.9349 78.5547 68.6484C79.5182 68.362 80.4167 67.9583 81.25 67.4375C82.1094 66.8906 82.8646 66.2396 83.5156 65.4844C84.1927 64.7031 84.7396 63.8438 85.1562 62.9062L92.9688 70.7578C91.9792 72.1641 90.8333 73.4271 89.5312 74.5469C88.2552 75.6667 86.862 76.6172 85.3516 77.3984C83.8672 78.1797 82.2917 78.7656 80.625 79.1562C78.9844 79.5729 77.2917 79.7812 75.5469 79.7812C72.6042 79.7812 69.8307 79.2344 67.2266 78.1406C64.6484 77.0469 62.3828 75.5234 60.4297 73.5703C58.5026 71.6172 56.9792 69.2995 55.8594 66.6172C54.7396 63.9089 54.1797 60.9401 54.1797 57.7109C54.1797 54.4036 54.7396 51.3828 55.8594 48.6484C56.9792 45.9141 58.5026 43.5833 60.4297 41.6562C62.3828 39.7292 64.6484 38.2318 67.2266 37.1641C69.8307 36.0964 72.6042 35.5625 75.5469 35.5625C77.2917 35.5625 78.9974 35.7708 80.6641 36.1875C82.3307 36.6042 83.9062 37.2031 85.3906 37.9844C86.901 38.7656 88.3073 39.7292 89.6094 40.875C90.9115 41.9948 92.0573 43.2578 93.0469 44.6641L73.0469 68.7656ZM78.5156 46.7734C78.0208 46.5911 77.526 46.474 77.0312 46.4219C76.5625 46.3698 76.0677 46.3438 75.5469 46.3438C74.0885 46.3438 72.7083 46.6172 71.4062 47.1641C70.1302 47.6849 69.0104 48.4401 68.0469 49.4297C67.1094 50.4193 66.3672 51.6172 65.8203 53.0234C65.2734 54.4036 65 55.9661 65 57.7109C65 58.1016 65.013 58.5443 65.0391 59.0391C65.0911 59.5339 65.1562 60.0417 65.2344 60.5625C65.3385 61.0573 65.4557 61.5391 65.5859 62.0078C65.7161 62.4766 65.8854 62.8932 66.0938 63.2578L78.5156 46.7734ZM138.633 79H136.055L131.914 73.2578C130.898 74.1693 129.818 75.0286 128.672 75.8359C127.552 76.6172 126.367 77.3073 125.117 77.9062C123.867 78.4792 122.578 78.9349 121.25 79.2734C119.948 79.612 118.62 79.7812 117.266 79.7812C114.323 79.7812 111.549 79.2865 108.945 78.2969C106.367 77.3073 104.102 75.875 102.148 74C100.221 72.099 98.6979 69.7812 97.5781 67.0469C96.4583 64.3125 95.8984 61.2005 95.8984 57.7109C95.8984 54.4557 96.4583 51.474 97.5781 48.7656C98.6979 46.0312 100.221 43.6875 102.148 41.7344C104.102 39.7812 106.367 38.2708 108.945 37.2031C111.549 36.1094 114.323 35.5625 117.266 35.5625C118.62 35.5625 119.961 35.7318 121.289 36.0703C122.617 36.4089 123.906 36.8776 125.156 37.4766C126.406 38.0755 127.591 38.7786 128.711 39.5859C129.857 40.3932 130.924 41.2656 131.914 42.2031L136.055 37.2422H138.633V79ZM127.891 57.7109C127.891 56.2526 127.604 54.8464 127.031 53.4922C126.484 52.112 125.729 50.901 124.766 49.8594C123.802 48.7917 122.669 47.9453 121.367 47.3203C120.091 46.6693 118.724 46.3438 117.266 46.3438C115.807 46.3438 114.427 46.5911 113.125 47.0859C111.849 47.5807 110.729 48.3099 109.766 49.2734C108.828 50.237 108.086 51.4349 107.539 52.8672C106.992 54.2734 106.719 55.888 106.719 57.7109C106.719 59.5339 106.992 61.1615 107.539 62.5938C108.086 64 108.828 65.1849 109.766 66.1484C110.729 67.112 111.849 67.8411 113.125 68.3359C114.427 68.8307 115.807 69.0781 117.266 69.0781C118.724 69.0781 120.091 68.7656 121.367 68.1406C122.669 67.4896 123.802 66.6432 124.766 65.6016C125.729 64.5339 126.484 63.3229 127.031 61.9688C127.604 60.5885 127.891 59.1693 127.891 57.7109ZM157.461 79H146.797V37.1641H149.375L152.891 42.125C154.609 40.5625 156.562 39.3646 158.75 38.5312C160.938 37.6719 163.203 37.2422 165.547 37.2422H174.961V47.8672H165.547C164.427 47.8672 163.372 48.0755 162.383 48.4922C161.393 48.9089 160.534 49.4818 159.805 50.2109C159.076 50.9401 158.503 51.7995 158.086 52.7891C157.669 53.7786 157.461 54.8333 157.461 55.9531V79Z" fill="black"/>
<path d="M190.922 45.4062V79H180.609V36.7344H190.336L190.922 45.4062ZM189.398 56.3438H186.234C186.234 53.401 186.586 50.6927 187.289 48.2188C188.018 45.7448 189.086 43.5964 190.492 41.7734C191.898 39.9245 193.63 38.4922 195.688 37.4766C197.771 36.4609 200.18 35.9531 202.914 35.9531C204.815 35.9531 206.56 36.2396 208.148 36.8125C209.737 37.3594 211.104 38.2318 212.25 39.4297C213.422 40.6016 214.32 42.138 214.945 44.0391C215.57 45.9141 215.883 48.1667 215.883 50.7969V79H205.57V51.8516C205.57 49.8724 205.284 48.3229 204.711 47.2031C204.164 46.0833 203.37 45.3021 202.328 44.8594C201.286 44.3906 200.036 44.1562 198.578 44.1562C196.964 44.1562 195.57 44.4818 194.398 45.1328C193.253 45.7578 192.302 46.6302 191.547 47.75C190.818 48.8698 190.271 50.1589 189.906 51.6172C189.568 53.0755 189.398 54.651 189.398 56.3438ZM215.102 54.4297L210.844 55.2109C210.87 52.5547 211.234 50.0677 211.938 47.75C212.641 45.4062 213.669 43.362 215.023 41.6172C216.404 39.8464 218.109 38.4661 220.141 37.4766C222.198 36.4609 224.568 35.9531 227.25 35.9531C229.333 35.9531 231.208 36.2526 232.875 36.8516C234.568 37.4245 236.013 38.349 237.211 39.625C238.409 40.875 239.32 42.5026 239.945 44.5078C240.596 46.513 240.922 48.9609 240.922 51.8516V79H230.531V51.8125C230.531 49.7552 230.245 48.1797 229.672 47.0859C229.125 45.9922 228.331 45.237 227.289 44.8203C226.247 44.3776 225.023 44.1562 223.617 44.1562C222.185 44.1562 220.935 44.4297 219.867 44.9766C218.826 45.4974 217.94 46.2266 217.211 47.1641C216.508 48.1016 215.974 49.1953 215.609 50.4453C215.271 51.6693 215.102 52.9974 215.102 54.4297ZM269.164 79.7812C265.961 79.7812 263.083 79.2604 260.531 78.2188C257.979 77.1771 255.805 75.7318 254.008 73.8828C252.237 72.0078 250.87 69.8333 249.906 67.3594C248.969 64.8594 248.5 62.1771 248.5 59.3125V57.75C248.5 54.4948 248.969 51.5391 249.906 48.8828C250.844 46.2005 252.172 43.8958 253.891 41.9688C255.609 40.0417 257.667 38.5573 260.062 37.5156C262.458 36.474 265.102 35.9531 267.992 35.9531C270.987 35.9531 273.63 36.4609 275.922 37.4766C278.214 38.4661 280.128 39.8724 281.664 41.6953C283.201 43.5182 284.359 45.7057 285.141 48.2578C285.922 50.7839 286.312 53.5833 286.312 56.6562V60.9922H253.188V53.8828H276.156V53.1016C276.104 51.4609 275.792 49.9635 275.219 48.6094C274.646 47.2292 273.76 46.1354 272.562 45.3281C271.365 44.4948 269.815 44.0781 267.914 44.0781C266.378 44.0781 265.036 44.4167 263.891 45.0938C262.771 45.7448 261.833 46.6823 261.078 47.9062C260.349 49.1042 259.802 50.5365 259.438 52.2031C259.073 53.8698 258.891 55.7188 258.891 57.75V59.3125C258.891 61.0833 259.125 62.724 259.594 64.2344C260.089 65.7448 260.805 67.0599 261.742 68.1797C262.706 69.2734 263.852 70.1328 265.18 70.7578C266.534 71.3568 268.07 71.6562 269.789 71.6562C271.951 71.6562 273.904 71.2396 275.648 70.4062C277.419 69.5469 278.956 68.2839 280.258 66.6172L285.453 72.0078C284.568 73.3099 283.37 74.5599 281.859 75.7578C280.375 76.9557 278.578 77.9323 276.469 78.6875C274.359 79.4167 271.924 79.7812 269.164 79.7812Z" fill="white"/>
</svg>
