<svg width="14" height="14" viewBox="0 0 14 14" fill="none" xmlns="http://www.w3.org/2000/svg">
<path d="M6.99996 0.332682C10.6819 0.332682 13.6666 3.31745 13.6666 6.99935C13.6666 10.6812 10.6819 13.666 6.99996 13.666C3.31806 13.666 0.333292 10.6812 0.333292 6.99935C0.337334 3.31913 3.31974 0.336723 6.99996 0.332682ZM7.01063 1.66601H6.99996C4.05548 1.66896 1.67049 4.05754 1.67196 7.00201C1.67343 9.94649 4.06082 12.3327 7.00529 12.3327C9.94977 12.3327 12.3372 9.94649 12.3386 7.00201C12.3401 4.05754 9.9551 1.66896 7.01063 1.66601ZM9.32396 5.09002L10.2666 6.03268L6.96663 9.33268L3.66663 6.03268L4.60929 5.09068L6.96663 7.44735L9.32329 5.09002H9.32396Z" fill="black"/>
</svg>
