<svg width="110" height="48" viewBox="0 0 110 48" fill="none" xmlns="http://www.w3.org/2000/svg">
<rect y="32" width="110" height="8" fill="#EDA323"/>
<path d="M11.7069 34.32V7.44H30.2669V12.84H19.1469V17.96H27.8269V23.24H19.1469V28.92H30.6269V34.32H11.7069ZM45.5231 29.72C46.8031 29.72 47.8031 29.28 48.4431 28.8V18.68C47.8831 18.32 46.8831 17.96 45.6031 17.96C43.2031 17.96 41.7631 19.24 41.7631 23.64V24.24C41.7631 28.64 43.2431 29.72 45.5231 29.72ZM42.9231 34.68C38.6031 34.68 34.7631 31.8 34.7631 24.52V24.08C34.7631 16.32 38.6831 13.32 44.1231 13.32C46.3231 13.32 47.7631 13.8 48.4431 14.2V5.68H55.2031V34.28H49.3631L48.9231 32.72H48.6831C47.2831 34.04 45.4431 34.68 42.9231 34.68ZM61.1484 11.36V6.16H68.0684V11.36H61.1484ZM61.1884 34.32V13.68H68.0284V34.32H61.1884ZM81.9166 34.6C77.7966 34.6 75.3566 33.24 75.3566 28.72V18.44H72.7966V13.72H75.3566V8.84H82.1966V13.72H86.3566V18.44H82.1966V27.72C82.1966 29.16 82.7966 29.6 84.4366 29.6C85.1566 29.6 85.9166 29.52 86.4766 29.4V33.8C85.6366 34.2 84.1166 34.6 81.9166 34.6Z" fill="black"/>
<path d="M11.7069 34.32V7.44H30.2669V12.84H19.1469V17.96H27.8269V23.24H19.1469V28.92H30.6269V34.32H11.7069ZM45.5231 29.72C46.8031 29.72 47.8031 29.28 48.4431 28.8V18.68C47.8831 18.32 46.8831 17.96 45.6031 17.96C43.2031 17.96 41.7631 19.24 41.7631 23.64V24.24C41.7631 28.64 43.2431 29.72 45.5231 29.72ZM42.9231 34.68C38.6031 34.68 34.7631 31.8 34.7631 24.52V24.08C34.7631 16.32 38.6831 13.32 44.1231 13.32C46.3231 13.32 47.7631 13.8 48.4431 14.2V5.68H55.2031V34.28H49.3631L48.9231 32.72H48.6831C47.2831 34.04 45.4431 34.68 42.9231 34.68ZM61.1484 11.36V6.16H68.0684V11.36H61.1484ZM61.1884 34.32V13.68H68.0284V34.32H61.1884ZM81.9166 34.6C77.7966 34.6 75.3566 33.24 75.3566 28.72V18.44H72.7966V13.72H75.3566V8.84H82.1966V13.72H86.3566V18.44H82.1966V27.72C82.1966 29.16 82.7966 29.6 84.4366 29.6C85.1566 29.6 85.9166 29.52 86.4766 29.4V33.8C85.6366 34.2 84.1166 34.6 81.9166 34.6Z" fill="black" fill-opacity="0.2"/>
<path d="M11.7069 34.32V7.44H30.2669V12.84H19.1469V17.96H27.8269V23.24H19.1469V28.92H30.6269V34.32H11.7069ZM45.5231 29.72C46.8031 29.72 47.8031 29.28 48.4431 28.8V18.68C47.8831 18.32 46.8831 17.96 45.6031 17.96C43.2031 17.96 41.7631 19.24 41.7631 23.64V24.24C41.7631 28.64 43.2431 29.72 45.5231 29.72ZM42.9231 34.68C38.6031 34.68 34.7631 31.8 34.7631 24.52V24.08C34.7631 16.32 38.6831 13.32 44.1231 13.32C46.3231 13.32 47.7631 13.8 48.4431 14.2V5.68H55.2031V34.28H49.3631L48.9231 32.72H48.6831C47.2831 34.04 45.4431 34.68 42.9231 34.68ZM61.1484 11.36V6.16H68.0684V11.36H61.1484ZM61.1884 34.32V13.68H68.0284V34.32H61.1884ZM81.9166 34.6C77.7966 34.6 75.3566 33.24 75.3566 28.72V18.44H72.7966V13.72H75.3566V8.84H82.1966V13.72H86.3566V18.44H82.1966V27.72C82.1966 29.16 82.7966 29.6 84.4366 29.6C85.1566 29.6 85.9166 29.52 86.4766 29.4V33.8C85.6366 34.2 84.1166 34.6 81.9166 34.6Z" fill="black" fill-opacity="0.2"/>
<path d="M11.7069 34.32V7.44H30.2669V12.84H19.1469V17.96H27.8269V23.24H19.1469V28.92H30.6269V34.32H11.7069ZM45.5231 29.72C46.8031 29.72 47.8031 29.28 48.4431 28.8V18.68C47.8831 18.32 46.8831 17.96 45.6031 17.96C43.2031 17.96 41.7631 19.24 41.7631 23.64V24.24C41.7631 28.64 43.2431 29.72 45.5231 29.72ZM42.9231 34.68C38.6031 34.68 34.7631 31.8 34.7631 24.52V24.08C34.7631 16.32 38.6831 13.32 44.1231 13.32C46.3231 13.32 47.7631 13.8 48.4431 14.2V5.68H55.2031V34.28H49.3631L48.9231 32.72H48.6831C47.2831 34.04 45.4431 34.68 42.9231 34.68ZM61.1484 11.36V6.16H68.0684V11.36H61.1484ZM61.1884 34.32V13.68H68.0284V34.32H61.1884ZM81.9166 34.6C77.7966 34.6 75.3566 33.24 75.3566 28.72V18.44H72.7966V13.72H75.3566V8.84H82.1966V13.72H86.3566V18.44H82.1966V27.72C82.1966 29.16 82.7966 29.6 84.4366 29.6C85.1566 29.6 85.9166 29.52 86.4766 29.4V33.8C85.6366 34.2 84.1166 34.6 81.9166 34.6Z" fill="black" fill-opacity="0.2"/>
<path d="M11.7069 34.32V7.44H30.2669V12.84H19.1469V17.96H27.8269V23.24H19.1469V28.92H30.6269V34.32H11.7069ZM45.5231 29.72C46.8031 29.72 47.8031 29.28 48.4431 28.8V18.68C47.8831 18.32 46.8831 17.96 45.6031 17.96C43.2031 17.96 41.7631 19.24 41.7631 23.64V24.24C41.7631 28.64 43.2431 29.72 45.5231 29.72ZM42.9231 34.68C38.6031 34.68 34.7631 31.8 34.7631 24.52V24.08C34.7631 16.32 38.6831 13.32 44.1231 13.32C46.3231 13.32 47.7631 13.8 48.4431 14.2V5.68H55.2031V34.28H49.3631L48.9231 32.72H48.6831C47.2831 34.04 45.4431 34.68 42.9231 34.68ZM61.1484 11.36V6.16H68.0684V11.36H61.1484ZM61.1884 34.32V13.68H68.0284V34.32H61.1884ZM81.9166 34.6C77.7966 34.6 75.3566 33.24 75.3566 28.72V18.44H72.7966V13.72H75.3566V8.84H82.1966V13.72H86.3566V18.44H82.1966V27.72C82.1966 29.16 82.7966 29.6 84.4366 29.6C85.1566 29.6 85.9166 29.52 86.4766 29.4V33.8C85.6366 34.2 84.1166 34.6 81.9166 34.6Z" fill="black" fill-opacity="0.2"/>
</svg>
